<svg width="28" height="28" xmlns="http://www.w3.org/2000/svg"><path d="M5.775 19.722l-.615-3.74H2.178l-.545 3.74H0L2.296 5h2.58l2.532 14.722H5.775zm-3.408-5.136h2.58l-1.373-8.45-1.207 8.45zm11.597-3.81V7.13c0-.315-.047-.517-.142-.603-.094-.087-.291-.13-.591-.13h-2.533v5.112h2.533c.3 0 .497-.044.591-.13.095-.087.142-.288.142-.604zm0 6.816v-3.953c0-.3-.047-.497-.142-.592-.094-.094-.291-.142-.591-.142h-2.533v5.42h2.533c.3 0 .497-.043.591-.13.095-.087.142-.288.142-.603zM9.065 5h4.663c1.246 0 1.87.623 1.87 1.87v4.237c0 .725-.292 1.112-.876 1.16.584.094.876.457.876 1.088v4.497c0 1.247-.624 1.87-1.87 1.87H9.065V5zm7.716 17.16v-1.397H28v1.397H16.781z" fill="#424242" fill-rule="nonzero"/></svg>